<svg id="svg" version="1.1" width="288px" height="200" viewBox="0 0 400 277"  xmlns="http://www.w3.org/2000/svg" xmlns:xlink="http://www.w3.org/1999/xlink" style="display: block;">
  <g id="svgg">
    <path
      id="path0"
      d="M12.531 0.637 C 12.365 1.068,12.200 1.123,12.008 0.813 C 11.800 0.476,11.456 0.483,10.676 0.838 C 10.098 1.101,9.700 1.439,9.793 1.588 C 9.885 1.737,9.564 1.846,9.080 1.830 C 8.551 1.812,8.244 2.011,8.310 2.330 C 8.370 2.621,8.250 2.754,8.042 2.626 C 7.834 2.497,6.705 3.308,5.532 4.426 C 4.359 5.545,3.670 6.343,4.000 6.200 C 4.330 6.056,4.195 6.297,3.700 6.734 C 3.205 7.171,2.800 7.724,2.800 7.964 C 2.800 8.204,2.575 8.355,2.300 8.300 C 2.025 8.245,1.825 8.515,1.856 8.900 C 1.886 9.285,1.757 9.600,1.568 9.600 C 1.379 9.600,1.332 9.877,1.462 10.216 C 1.612 10.609,1.498 10.790,1.149 10.716 C 0.789 10.640,0.605 10.969,0.613 11.670 C 0.621 12.259,0.487 12.654,0.315 12.548 C 0.144 12.442,0.004 69.155,0.004 138.578 C 0.004 258.392,0.039 264.800,0.702 264.806 C 1.223 264.811,1.268 264.896,0.880 265.142 C 0.466 265.405,0.457 265.688,0.838 266.524 C 1.101 267.102,1.469 267.481,1.654 267.367 C 1.839 267.252,1.884 267.438,1.753 267.779 C 1.603 268.170,2.012 268.870,2.857 269.672 C 3.596 270.371,3.930 270.786,3.600 270.592 C 3.270 270.399,3.990 271.217,5.200 272.410 C 6.410 273.603,7.548 274.534,7.730 274.480 C 7.911 274.425,7.951 274.556,7.819 274.770 C 7.504 275.279,9.082 276.120,9.670 275.757 C 9.938 275.591,10.014 275.654,9.855 275.911 C 9.708 276.149,9.790 276.470,10.038 276.624 C 10.286 276.777,10.647 276.654,10.839 276.351 C 11.115 275.915,11.189 275.947,11.194 276.500 C 11.203 277.530,387.074 277.593,387.469 276.563 C 387.635 276.132,387.800 276.077,387.992 276.387 C 388.200 276.724,388.544 276.717,389.324 276.362 C 389.902 276.099,390.300 275.761,390.207 275.612 C 390.115 275.463,390.436 275.354,390.920 275.370 C 391.449 275.388,391.756 275.189,391.690 274.870 C 391.630 274.579,391.750 274.446,391.958 274.574 C 392.166 274.703,393.295 273.892,394.468 272.774 C 395.641 271.655,396.330 270.857,396.000 271.000 C 395.670 271.144,395.805 270.903,396.300 270.466 C 396.795 270.029,397.200 269.476,397.200 269.236 C 397.200 268.996,397.425 268.845,397.700 268.900 C 397.975 268.955,398.175 268.685,398.144 268.300 C 398.114 267.915,398.243 267.600,398.432 267.600 C 398.621 267.600,398.668 267.323,398.538 266.984 C 398.388 266.591,398.502 266.410,398.851 266.484 C 399.211 266.560,399.395 266.231,399.387 265.530 C 399.379 264.941,399.513 264.546,399.685 264.652 C 399.856 264.758,399.996 208.045,399.996 138.622 C 399.996 18.808,399.961 12.400,399.298 12.394 C 398.777 12.389,398.732 12.304,399.120 12.058 C 399.534 11.795,399.543 11.512,399.162 10.676 C 398.899 10.098,398.531 9.719,398.346 9.833 C 398.161 9.948,398.116 9.762,398.247 9.421 C 398.397 9.030,397.988 8.330,397.143 7.528 C 396.404 6.829,396.070 6.414,396.400 6.608 C 396.730 6.801,396.010 5.983,394.800 4.790 C 393.590 3.597,392.452 2.666,392.270 2.720 C 392.089 2.775,392.049 2.644,392.181 2.430 C 392.496 1.921,390.918 1.080,390.330 1.443 C 390.062 1.609,389.986 1.546,390.145 1.289 C 390.292 1.051,390.210 0.730,389.962 0.576 C 389.714 0.423,389.353 0.546,389.161 0.849 C 388.885 1.285,388.811 1.253,388.806 0.700 C 388.797 -0.330,12.926 -0.393,12.531 0.637 M386.900 2.985 C 390.675 4.131,393.480 6.666,395.724 10.960 L 396.999 13.400 397.251 46.600 C 397.769 114.941,397.638 260.824,397.056 263.000 C 395.891 267.361,392.505 271.477,388.600 273.277 L 386.600 274.199 361.337 274.319 L 336.075 274.439 335.669 272.519 C 335.445 271.464,335.151 269.880,335.014 269.000 C 334.218 263.891,330.746 245.896,329.187 238.800 C 327.536 231.288,327.266 230.143,326.209 226.200 C 322.673 213.008,321.529 210.515,318.552 209.523 C 307.266 205.761,85.420 206.243,78.315 210.045 C 75.833 211.374,72.614 220.711,68.817 237.600 C 68.347 239.690,67.800 242.030,67.602 242.800 C 66.784 245.973,63.922 260.430,62.574 268.200 C 62.230 270.180,61.774 272.475,61.559 273.300 L 61.169 274.800 38.085 274.796 C 9.001 274.790,8.698 274.714,4.278 266.240 L 3.006 263.800 2.751 230.600 C 2.214 160.724,2.360 16.386,2.970 14.094 C 4.086 9.903,7.138 6.206,11.200 4.126 L 13.400 3.000 103.800 2.796 C 314.142 2.320,384.865 2.368,386.900 2.985 M381.874 6.558 C 373.844 9.533,375.722 22.467,384.182 22.467 C 388.942 22.467,392.243 18.746,391.924 13.741 C 391.577 8.293,386.665 4.783,381.874 6.558 M13.357 7.839 C 5.066 13.216,11.656 26.728,20.410 22.300 C 27.687 18.619,25.255 6.800,17.220 6.800 C 15.465 6.800,14.602 7.032,13.357 7.839 M386.954 9.635 C 390.972 12.796,389.213 19.600,384.379 19.600 C 382.023 19.600,380.703 18.621,379.772 16.183 C 377.991 11.518,383.251 6.723,386.954 9.635 M19.732 10.277 C 22.938 11.909,22.620 18.031,19.238 19.781 C 14.367 22.299,10.059 15.592,13.631 11.051 C 15.044 9.255,17.189 8.983,19.732 10.277 M383.779 12.200 C 383.520 13.926,383.453 14.000,382.155 14.000 C 381.067 14.000,380.800 14.157,380.800 14.800 C 380.800 15.448,381.067 15.600,382.200 15.600 C 383.567 15.600,383.600 15.638,383.600 17.200 C 383.600 19.480,385.088 19.569,385.276 17.300 C 385.393 15.881,385.481 15.793,386.900 15.676 C 389.169 15.488,389.080 14.000,386.800 14.000 L 385.200 14.000 385.200 12.200 C 385.200 10.901,385.040 10.400,384.625 10.400 C 384.249 10.400,383.955 11.026,383.779 12.200 M16.400 12.576 C 16.400 14.338,16.389 14.353,14.903 14.476 C 12.669 14.661,12.519 16.000,14.733 16.000 L 16.324 16.000 16.109 17.600 C 15.906 19.116,15.950 19.200,16.947 19.200 C 17.909 19.200,18.000 19.061,18.000 17.600 C 18.000 16.038,18.033 16.000,19.400 16.000 C 20.533 16.000,20.800 15.848,20.800 15.200 C 20.800 14.542,20.533 14.400,19.297 14.400 L 17.794 14.400 17.937 12.600 C 18.065 10.992,17.991 10.800,17.240 10.800 C 16.513 10.800,16.400 11.038,16.400 12.576 M171.474 23.235 L 26.747 23.533 25.368 24.466 C 24.609 24.980,23.607 26.181,23.141 27.136 L 22.294 28.872 22.591 110.536 C 22.925 202.086,22.633 194.082,25.716 196.052 L 27.000 196.872 198.952 196.618 C 367.569 196.369,370.932 196.349,372.411 195.594 C 373.241 195.171,374.312 194.189,374.793 193.412 L 375.666 191.999 375.622 110.100 L 375.578 28.200 374.689 26.400 C 374.032 25.069,373.335 24.365,372.015 23.700 L 370.230 22.800 343.215 22.868 C 328.357 22.905,251.073 23.070,171.474 23.235 M371.749 26.513 L 372.667 27.430 372.933 71.615 C 373.080 95.917,373.200 132.684,373.200 153.320 C 373.200 194.287,373.296 192.601,370.919 193.519 C 369.261 194.160,28.458 194.673,27.269 194.037 C 25.179 192.918,25.296 197.555,25.143 109.982 C 24.991 23.451,24.917 28.013,26.509 26.302 C 26.641 26.160,169.468 25.816,277.516 25.698 L 370.831 25.595 371.749 26.513 M85.100 28.300 L 32.400 28.403 32.400 51.001 L 32.400 73.598 197.700 73.366 C 288.615 73.238,363.225 73.064,363.500 72.979 C 364.075 72.802,364.186 56.479,363.735 38.500 L 363.472 28.000 250.636 28.099 C 188.576 28.153,114.085 28.243,85.100 28.300 M361.200 50.600 L 361.200 70.800 218.700 70.800 C 140.325 70.801,66.885 70.920,55.500 71.066 L 34.800 71.331 34.800 51.066 L 34.800 30.802 106.700 30.700 C 146.245 30.644,219.685 30.553,269.900 30.499 L 361.200 30.400 361.200 50.600 M159.600 85.197 L 87.800 85.400 85.510 86.524 C 82.777 87.866,80.735 90.126,79.503 93.168 L 78.600 95.400 78.611 121.800 L 78.622 148.200 79.565 150.568 C 80.710 153.443,82.891 155.896,85.473 157.216 L 87.400 158.200 197.200 158.200 C 320.071 158.200,308.713 158.468,312.532 155.480 C 317.152 151.866,317.190 151.597,317.195 121.784 C 317.201 90.347,317.079 89.725,310.200 86.064 L 308.200 85.000 269.800 84.997 C 248.680 84.995,199.090 85.085,159.600 85.197 M116.135 93.782 C 140.347 96.197,150.583 129.782,132.600 147.806 C 112.049 168.404,78.735 149.168,83.405 119.400 C 85.686 104.861,100.675 91.712,113.000 93.437 C 113.440 93.499,114.851 93.654,116.135 93.782 M287.321 93.843 C 306.566 98.144,316.445 120.834,307.186 139.466 C 296.185 161.601,266.303 161.563,255.389 139.400 C 243.790 115.846,263.018 88.413,287.321 93.843 M228.800 97.432 C 228.800 97.560,227.744 98.720,226.453 100.011 C 215.510 110.954,213.535 128.899,221.721 143.000 C 223.292 145.705,227.513 150.341,230.400 152.530 L 231.800 153.591 198.800 153.583 C 169.450 153.575,165.888 153.509,166.600 152.978 C 180.543 142.574,184.751 124.561,176.969 108.585 C 175.202 104.956,171.383 99.959,169.293 98.542 C 168.221 97.814,168.649 97.796,191.400 97.595 C 204.160 97.482,217.795 97.347,221.700 97.295 C 225.605 97.243,228.800 97.304,228.800 97.432 M241.606 98.100 C 245.155 99.899,244.985 98.584,245.112 125.148 C 245.238 151.181,245.271 150.840,242.447 152.509 C 238.256 154.984,227.979 147.231,223.682 138.351 C 217.127 124.805,220.983 108.553,232.879 99.589 C 236.581 96.799,238.421 96.486,241.606 98.100 M164.662 99.808 C 167.627 102.039,171.747 106.573,172.459 108.387 C 172.672 108.930,173.055 109.626,173.311 109.933 C 176.231 113.452,177.650 125.373,175.974 132.306 C 172.738 145.695,157.966 157.916,151.967 152.168 L 150.794 151.045 150.897 125.238 L 151.000 99.432 152.359 98.516 C 153.551 97.713,154.212 97.600,157.724 97.600 L 161.729 97.600 164.662 99.808 M277.600 101.768 C 274.228 102.406,270.234 104.197,270.637 104.891 C 270.799 105.171,271.662 106.454,272.554 107.743 L 274.176 110.086 272.388 111.631 C 270.069 113.635,270.014 113.624,268.020 110.782 C 266.556 108.695,266.238 108.436,265.696 108.882 C 263.705 110.522,260.864 116.887,260.242 121.100 L 259.991 122.800 262.795 122.800 L 265.600 122.800 265.600 125.600 L 265.600 128.400 263.000 128.400 C 260.090 128.400,260.122 128.353,260.958 131.400 C 261.902 134.840,265.963 142.232,266.012 140.599 C 266.019 140.379,266.713 139.402,267.556 138.427 L 269.088 136.655 270.944 138.176 C 273.165 139.995,273.188 140.197,271.426 142.424 C 269.830 144.441,269.848 144.507,272.357 145.778 C 277.951 148.613,284.236 148.674,290.091 145.951 L 291.983 145.071 290.533 143.054 L 289.084 141.036 290.642 139.683 C 293.276 137.395,293.392 137.387,294.666 139.403 C 295.290 140.391,295.922 141.199,296.071 141.199 C 297.284 141.202,300.857 134.709,301.751 130.879 L 302.329 128.400 299.965 128.400 L 297.600 128.400 297.600 125.600 L 297.600 122.800 300.046 122.800 L 302.492 122.800 302.212 120.558 C 301.828 117.482,299.190 110.935,298.051 110.232 C 297.853 110.109,296.928 110.997,295.997 112.204 C 293.977 114.823,294.378 114.765,292.191 112.749 C 290.006 110.735,290.006 110.958,292.203 108.260 L 294.007 106.046 292.686 105.039 C 288.596 101.919,283.103 100.728,277.600 101.768 M108.400 102.008 C 106.500 102.340,103.483 103.552,102.287 104.464 C 101.621 104.972,101.693 105.176,103.387 107.582 C 104.384 108.998,105.192 110.256,105.183 110.378 C 105.141 110.924,101.110 113.667,100.813 113.352 C 100.632 113.158,99.763 111.961,98.882 110.691 L 97.281 108.383 95.891 110.291 C 93.950 112.956,92.956 115.048,92.013 118.451 C 90.777 122.911,90.726 122.800,94.000 122.800 L 96.800 122.800 96.800 125.800 L 96.800 128.800 94.200 128.800 C 91.247 128.800,91.204 128.868,92.172 132.057 C 92.995 134.769,94.605 138.005,95.901 139.553 L 97.033 140.906 98.584 138.872 L 100.135 136.839 102.068 138.457 C 104.387 140.398,104.386 140.394,102.514 142.679 L 101.027 144.493 101.930 145.224 C 105.823 148.376,113.692 149.094,119.600 146.837 C 123.151 145.480,123.110 145.553,121.614 143.221 C 120.889 142.093,120.365 141.106,120.449 141.028 C 124.044 137.671,124.459 137.577,125.863 139.799 C 127.257 142.006,127.122 142.011,128.864 139.679 C 131.169 136.591,133.200 131.934,133.200 129.737 C 133.200 128.868,133.041 128.800,131.000 128.800 L 128.800 128.800 128.800 125.771 L 128.800 122.742 131.100 122.840 L 133.400 122.937 133.290 121.169 C 133.113 118.334,131.265 113.400,129.498 111.046 C 128.965 110.336,128.826 110.422,127.096 112.545 L 125.261 114.799 123.242 112.962 L 121.224 111.125 123.214 108.666 L 125.204 106.207 124.302 105.498 C 120.388 102.423,114.023 101.027,108.400 102.008 M300.600 209.946 C 303.460 210.182,308.333 210.552,311.428 210.770 C 314.524 210.987,317.507 211.336,318.057 211.546 C 320.964 212.651,326.338 232.800,331.567 262.200 C 331.997 264.620,332.654 268.271,333.027 270.314 C 333.400 272.357,333.636 274.094,333.552 274.174 C 333.214 274.497,63.600 274.887,63.600 274.564 C 63.600 274.374,63.881 272.774,64.224 271.009 C 64.567 269.244,65.109 266.450,65.429 264.800 C 67.741 252.872,69.311 245.038,69.820 242.902 C 70.146 241.528,70.678 239.278,71.000 237.902 C 73.135 228.796,73.805 226.172,75.000 222.228 C 76.658 216.761,78.498 212.590,79.486 212.061 C 83.538 209.892,277.434 208.037,300.600 209.946 M351.400 232.330 C 344.094 235.456,341.000 240.233,341.000 248.392 C 341.000 267.877,365.388 271.781,371.397 253.259 C 375.350 241.073,362.471 227.594,351.400 232.330 M36.800 232.571 C 24.836 235.891,21.132 252.764,30.462 261.445 C 41.659 271.864,58.341 262.140,56.366 246.346 C 55.150 236.629,45.828 230.066,36.800 232.571 M359.542 234.580 C 368.194 236.882,372.163 247.861,367.360 256.204 C 363.217 263.401,353.150 264.798,347.481 258.964 C 337.596 248.790,346.361 231.071,359.542 234.580 M45.876 235.706 C 54.477 239.691,56.723 251.390,50.277 258.622 C 41.844 268.084,27.774 261.800,27.836 248.600 C 27.883 238.715,37.514 231.832,45.876 235.706 M353.920 239.976 C 348.313 241.082,345.168 248.152,348.040 253.195 C 352.802 261.556,365.230 257.922,364.719 248.317 C 364.418 242.675,359.498 238.875,353.920 239.976 M37.927 240.614 C 32.546 242.321,29.940 248.642,32.601 253.531 C 37.124 261.842,49.334 258.707,49.333 249.236 C 49.333 243.154,43.595 238.817,37.927 240.614 M249.311 243.020 C 239.958 247.681,243.283 263.142,253.649 263.191 C 261.000 263.226,265.884 254.255,262.288 247.325 C 259.793 242.514,254.109 240.629,249.311 243.020 M138.800 243.436 C 129.746 247.347,131.157 261.771,140.771 263.594 C 151.997 265.724,157.035 248.982,146.777 243.635 C 144.839 242.625,140.905 242.527,138.800 243.436 M256.097 244.533 C 263.743 247.197,262.557 259.534,254.509 261.043 C 251.488 261.610,246.774 258.201,246.177 255.017 C 244.858 247.989,250.103 242.446,256.097 244.533 M146.464 245.955 C 148.920 247.512,150.197 250.095,150.166 253.443 C 150.068 264.018,135.747 264.360,134.900 253.807 C 134.356 247.036,141.027 242.506,146.464 245.955 M289.193 250.711 C 284.022 253.244,281.541 258.924,283.321 264.150 C 287.460 276.296,304.783 271.288,302.333 258.654 C 301.101 252.301,294.316 248.200,289.193 250.711 M95.400 251.351 C 85.763 255.895,88.973 271.618,99.533 271.596 C 108.692 271.577,112.769 258.829,105.582 252.678 C 104.633 251.865,103.539 251.200,103.152 251.200 C 102.764 251.200,102.336 251.020,102.200 250.800 C 101.717 250.019,97.499 250.361,95.400 251.351 M295.983 252.991 C 300.838 255.502,301.886 262.820,297.953 266.753 C 290.445 274.261,280.044 262.278,287.327 254.511 C 289.525 252.167,293.157 251.530,295.983 252.991 M101.868 252.930 C 107.422 254.987,108.938 262.551,104.681 266.971 C 100.725 271.080,95.043 269.977,92.547 264.616 C 89.499 258.071,95.484 250.566,101.868 252.930 M381.562 255.300 C 377.285 258.569,376.830 264.092,380.520 267.931 C 385.479 273.090,393.318 269.452,393.318 261.991 C 393.318 255.423,386.487 251.535,381.562 255.300 M11.517 256.514 C 8.758 258.254,7.541 260.486,7.546 263.800 C 7.560 272.628,18.837 275.109,22.214 267.028 C 25.077 260.176,17.507 252.736,11.517 256.514 M387.992 257.244 C 392.962 260.037,390.506 268.459,385.022 267.430 C 380.232 266.532,379.284 259.479,383.641 257.158 C 385.419 256.210,386.181 256.226,387.992 257.244 M385.067 258.267 C 384.920 258.413,384.800 259.223,384.800 260.067 C 384.800 261.552,384.757 261.600,383.400 261.600 C 382.267 261.600,382.000 261.752,382.000 262.400 C 382.000 263.048,382.267 263.200,383.400 263.200 C 384.767 263.200,384.800 263.238,384.800 264.800 C 384.800 267.080,386.288 267.169,386.476 264.900 C 386.589 263.531,386.713 263.389,387.900 263.275 C 389.853 263.086,389.764 261.600,387.800 261.600 C 386.407 261.600,386.400 261.590,386.400 259.800 C 386.400 258.100,385.858 257.476,385.067 258.267 M18.306 259.769 C 21.719 262.897,19.567 269.200,15.086 269.200 C 13.784 269.200,13.233 268.927,11.953 267.647 C 7.160 262.854,13.327 255.206,18.306 259.769 M14.224 261.380 C 13.961 263.134,13.901 263.200,12.575 263.200 C 11.467 263.200,11.200 263.355,11.200 264.000 C 11.200 264.648,11.467 264.800,12.600 264.800 C 13.960 264.800,14.000 264.844,14.000 266.357 C 14.000 267.408,14.206 267.993,14.633 268.157 C 15.801 268.605,16.000 268.408,16.000 266.800 C 16.000 265.238,16.033 265.200,17.400 265.200 C 18.594 265.200,18.800 265.065,18.800 264.280 C 18.800 263.468,18.640 263.379,17.424 263.521 L 16.047 263.682 15.924 261.745 C 15.750 259.029,14.613 258.785,14.224 261.380 "
      stroke="none"
      fill="#000000"
      fill-rule="evenodd"></path>
    <path
      id="path1"
      d="M194.700 2.682 C 195.195 2.778,196.005 2.778,196.500 2.682 C 196.995 2.587,196.590 2.509,195.600 2.509 C 194.610 2.509,194.205 2.587,194.700 2.682 M16.300 6.682 C 16.795 6.778,17.605 6.778,18.100 6.682 C 18.595 6.587,18.190 6.509,17.200 6.509 C 16.210 6.509,15.805 6.587,16.300 6.682 M20.600 7.454 C 20.820 7.648,21.629 8.345,22.399 9.003 L 23.797 10.200 22.799 9.063 C 22.249 8.438,21.440 7.741,21.000 7.514 C 20.560 7.288,20.380 7.261,20.600 7.454 M383.600 11.000 C 383.600 11.550,383.669 12.000,383.753 12.000 C 383.838 12.000,383.993 11.550,384.098 11.000 C 384.203 10.450,384.134 10.000,383.945 10.000 C 383.755 10.000,383.600 10.450,383.600 11.000 M376.514 14.200 C 376.517 15.300,376.595 15.703,376.687 15.095 C 376.779 14.486,376.777 13.586,376.682 13.095 C 376.587 12.603,376.511 13.100,376.514 14.200 M9.314 15.000 C 9.317 16.100,9.395 16.503,9.487 15.895 C 9.579 15.286,9.577 14.386,9.482 13.895 C 9.387 13.403,9.311 13.900,9.314 15.000 M24.909 14.800 C 24.909 15.790,24.987 16.195,25.082 15.700 C 25.178 15.205,25.178 14.395,25.082 13.900 C 24.987 13.405,24.909 13.810,24.909 14.800 M392.093 14.400 C 392.093 15.170,392.175 15.485,392.276 15.100 C 392.376 14.715,392.376 14.085,392.276 13.700 C 392.175 13.315,392.093 13.630,392.093 14.400 M381.505 13.883 C 382.002 13.979,382.722 13.975,383.105 13.875 C 383.487 13.775,383.080 13.696,382.200 13.701 C 381.320 13.705,381.007 13.787,381.505 13.883 M13.600 16.156 C 13.600 16.242,14.230 16.386,15.000 16.476 C 15.770 16.566,16.400 16.496,16.400 16.320 C 16.400 16.144,15.770 16.000,15.000 16.000 C 14.230 16.000,13.600 16.070,13.600 16.156 M18.705 16.283 C 19.202 16.379,19.922 16.375,20.305 16.275 C 20.687 16.175,20.280 16.096,19.400 16.101 C 18.520 16.105,18.207 16.187,18.705 16.283 M314.100 23.076 C 314.485 23.176,315.115 23.176,315.500 23.076 C 315.885 22.975,315.570 22.893,314.800 22.893 C 314.030 22.893,313.715 22.975,314.100 23.076 M45.470 23.500 C 55.628 23.559,72.368 23.559,82.670 23.500 C 92.971 23.441,84.660 23.392,64.200 23.392 C 43.740 23.392,35.311 23.440,45.470 23.500 M194.127 25.900 C 199.147 25.963,207.247 25.963,212.127 25.900 C 217.007 25.836,212.900 25.784,203.000 25.784 C 193.100 25.784,189.107 25.836,194.127 25.900 M326.591 27.899 L 363.582 28.004 363.705 34.902 L 363.828 41.800 363.814 34.800 L 363.800 27.800 326.700 27.797 L 289.600 27.794 326.591 27.899 M79.730 28.300 C 90.472 28.359,107.932 28.359,118.530 28.300 C 129.129 28.241,120.340 28.192,99.000 28.192 C 77.660 28.192,68.989 28.241,79.730 28.300 M32.187 51.000 C 32.187 63.540,32.238 68.612,32.300 62.272 C 32.362 55.931,32.362 45.671,32.300 39.472 C 32.238 33.272,32.187 38.460,32.187 51.000 M24.977 40.800 C 24.977 47.290,25.032 49.945,25.099 46.700 C 25.166 43.455,25.166 38.145,25.099 34.900 C 25.032 31.655,24.977 34.310,24.977 40.800 M207.731 30.700 C 223.974 30.758,250.434 30.758,266.531 30.700 C 282.629 30.642,269.340 30.595,237.000 30.595 C 204.660 30.595,191.489 30.642,207.731 30.700 M296.131 70.700 C 308.193 70.759,327.813 70.759,339.731 70.700 C 351.649 70.641,341.780 70.593,317.800 70.593 C 293.820 70.593,284.069 70.641,296.131 70.700 M55.100 71.096 C 56.475 71.174,58.725 71.174,60.100 71.096 C 61.475 71.018,60.350 70.954,57.600 70.954 C 54.850 70.954,53.725 71.018,55.100 71.096 M397.301 73.000 C 397.305 73.880,397.387 74.193,397.483 73.695 C 397.579 73.198,397.575 72.478,397.475 72.095 C 397.375 71.713,397.296 72.120,397.301 73.000 M182.500 73.500 C 204.885 73.557,241.515 73.557,263.900 73.500 C 286.285 73.443,267.970 73.396,223.200 73.396 C 178.430 73.396,160.115 73.443,182.500 73.500 M151.131 85.100 C 165.943 85.158,190.063 85.158,204.731 85.100 C 219.399 85.042,207.280 84.994,177.800 84.994 C 148.320 84.994,136.319 85.042,151.131 85.100 M221.353 97.500 L 228.507 97.619 227.753 98.509 L 227.000 99.400 227.900 98.638 C 229.472 97.307,228.954 97.198,221.500 97.290 L 214.200 97.380 221.353 97.500 M236.900 97.487 C 237.505 97.578,238.495 97.578,239.100 97.487 C 239.705 97.395,239.210 97.320,238.000 97.320 C 236.790 97.320,236.295 97.395,236.900 97.487 M151.459 99.135 C 150.851 99.806,150.803 102.083,150.900 125.635 L 151.006 151.400 151.103 125.631 C 151.191 102.300,151.263 99.794,151.862 99.131 C 152.226 98.729,152.434 98.400,152.324 98.400 C 152.214 98.400,151.825 98.731,151.459 99.135 M299.200 99.725 C 299.200 99.794,299.785 100.379,300.500 101.025 L 301.800 102.200 300.625 100.900 C 299.530 99.688,299.200 99.416,299.200 99.725 M92.185 102.100 L 90.200 104.200 92.300 102.215 C 94.251 100.371,94.583 100.000,94.285 100.000 C 94.222 100.000,93.277 100.945,92.185 102.100 M244.987 125.800 C 244.987 138.560,245.038 143.838,245.100 137.529 C 245.162 131.219,245.162 120.779,245.100 114.329 C 245.038 107.878,244.987 113.040,244.987 125.800 M121.439 110.737 C 121.325 110.922,121.899 111.687,122.716 112.437 L 124.200 113.800 122.893 112.374 C 122.174 111.589,121.709 110.824,121.860 110.674 C 122.010 110.523,122.024 110.400,121.890 110.400 C 121.757 110.400,121.554 110.551,121.439 110.737 M291.800 112.400 C 292.659 113.280,293.452 114.000,293.562 114.000 C 293.672 114.000,293.059 113.280,292.200 112.400 C 291.341 111.520,290.548 110.800,290.438 110.800 C 290.328 110.800,290.941 111.520,291.800 112.400 M22.589 139.800 C 22.589 154.320,22.639 160.202,22.700 152.871 C 22.761 145.540,22.761 133.660,22.700 126.471 C 22.639 119.282,22.589 125.280,22.589 139.800 M216.546 124.600 C 216.547 126.800,216.614 127.649,216.695 126.487 C 216.776 125.324,216.776 123.524,216.693 122.487 C 216.611 121.449,216.545 122.400,216.546 124.600 M310.509 122.400 C 310.509 123.390,310.587 123.795,310.682 123.300 C 310.778 122.805,310.778 121.995,310.682 121.500 C 310.587 121.005,310.509 121.410,310.509 122.400 M220.542 124.600 C 220.541 126.580,220.608 127.440,220.692 126.512 C 220.776 125.584,220.777 123.964,220.695 122.912 C 220.612 121.860,220.543 122.620,220.542 124.600 M141.737 125.000 C 141.739 126.760,141.809 127.430,141.893 126.489 C 141.978 125.549,141.977 124.109,141.891 123.289 C 141.805 122.470,141.736 123.240,141.737 125.000 M92.500 123.091 C 93.325 123.178,94.675 123.178,95.500 123.091 C 96.325 123.005,95.650 122.934,94.000 122.934 C 92.350 122.934,91.675 123.005,92.500 123.091 M129.700 123.087 C 130.305 123.178,131.295 123.178,131.900 123.087 C 132.505 122.995,132.010 122.920,130.800 122.920 C 129.590 122.920,129.095 122.995,129.700 123.087 M310.509 126.800 C 310.509 127.790,310.587 128.195,310.682 127.700 C 310.778 127.205,310.778 126.395,310.682 125.900 C 310.587 125.405,310.509 125.810,310.509 126.800 M91.206 129.100 C 91.210 129.574,91.311 129.645,91.516 129.321 C 91.684 129.058,92.986 128.778,94.410 128.698 L 97.000 128.554 94.100 128.477 C 91.573 128.410,91.201 128.490,91.206 129.100 M130.874 128.695 C 132.601 128.804,133.192 129.002,133.328 129.519 C 133.457 130.008,133.520 129.947,133.554 129.300 C 133.597 128.450,133.461 128.404,131.100 128.476 L 128.600 128.551 130.874 128.695 M78.520 145.200 C 78.520 146.410,78.595 146.905,78.687 146.300 C 78.778 145.695,78.778 144.705,78.687 144.100 C 78.595 143.495,78.520 143.990,78.520 145.200 M132.378 147.900 L 131.000 149.400 132.500 148.022 C 133.325 147.263,134.000 146.588,134.000 146.522 C 134.000 146.216,133.662 146.504,132.378 147.900 M260.000 146.525 C 260.000 146.594,260.585 147.179,261.300 147.825 L 262.600 149.000 261.425 147.700 C 260.330 146.488,260.000 146.216,260.000 146.525 M91.200 146.925 C 91.200 146.994,91.785 147.579,92.500 148.225 L 93.800 149.400 92.625 148.100 C 91.530 146.888,91.200 146.616,91.200 146.925 M226.600 149.600 C 227.459 150.480,228.252 151.200,228.362 151.200 C 228.472 151.200,227.859 150.480,227.000 149.600 C 226.141 148.720,225.348 148.000,225.238 148.000 C 225.128 148.000,225.741 148.720,226.600 149.600 M25.386 171.800 C 25.386 182.800,25.437 187.242,25.500 181.672 C 25.563 176.102,25.562 167.102,25.500 161.672 C 25.437 156.242,25.385 160.800,25.386 171.800 M214.200 153.200 L 197.400 153.413 214.524 153.507 C 225.861 153.568,231.564 153.465,231.400 153.200 C 231.264 152.980,231.118 152.842,231.076 152.893 C 231.034 152.945,223.440 153.083,214.200 153.200 M81.200 154.125 C 81.200 154.194,81.785 154.779,82.500 155.425 L 83.800 156.600 82.625 155.300 C 81.530 154.088,81.200 153.816,81.200 154.125 M301.100 158.295 C 302.255 158.376,304.145 158.376,305.300 158.295 C 306.455 158.214,305.510 158.148,303.200 158.148 C 300.890 158.148,299.945 158.214,301.100 158.295 M108.930 158.700 C 120.112 158.759,138.292 158.759,149.330 158.700 C 160.369 158.641,151.220 158.592,129.000 158.592 C 106.780 158.592,97.749 158.641,108.930 158.700 M246.700 158.689 C 247.415 158.778,248.585 158.778,249.300 158.689 C 250.015 158.601,249.430 158.528,248.000 158.528 C 246.570 158.528,245.985 158.601,246.700 158.689 M301.300 193.900 C 314.005 193.959,334.795 193.959,347.500 193.900 C 360.205 193.841,349.810 193.793,324.400 193.793 C 298.990 193.793,288.595 193.841,301.300 193.900 M69.900 194.300 C 93.275 194.357,131.525 194.357,154.900 194.300 C 178.275 194.243,159.150 194.196,112.400 194.196 C 65.650 194.196,46.525 194.243,69.900 194.300 M258.900 196.700 C 269.845 196.759,287.755 196.759,298.700 196.700 C 309.645 196.641,300.690 196.592,278.800 196.592 C 256.910 196.592,247.955 196.641,258.900 196.700 M39.529 197.100 C 45.979 197.162,56.419 197.162,62.729 197.100 C 69.038 197.038,63.760 196.987,51.000 196.987 C 38.240 196.987,33.078 197.038,39.529 197.100 M2.509 204.000 C 2.509 204.990,2.587 205.395,2.682 204.900 C 2.778 204.405,2.778 203.595,2.682 203.100 C 2.587 202.605,2.509 203.010,2.509 204.000 M221.325 206.699 C 224.804 206.766,230.384 206.766,233.725 206.699 C 237.066 206.632,234.220 206.578,227.400 206.578 C 220.580 206.578,217.846 206.633,221.325 206.699 M170.473 207.099 C 174.804 207.164,182.004 207.164,186.473 207.100 C 190.943 207.035,187.400 206.982,178.600 206.982 C 169.800 206.982,166.143 207.035,170.473 207.099 M262.325 207.099 C 265.693 207.166,271.093 207.166,274.325 207.099 C 277.556 207.032,274.800 206.977,268.200 206.977 C 261.600 206.977,258.956 207.032,262.325 207.099 M104.517 208.297 C 106.011 208.374,108.351 208.374,109.717 208.296 C 111.082 208.218,109.860 208.155,107.000 208.155 C 104.140 208.156,103.022 208.220,104.517 208.297 M307.300 208.287 C 307.905 208.378,308.895 208.378,309.500 208.287 C 310.105 208.195,309.610 208.120,308.400 208.120 C 307.190 208.120,306.695 208.195,307.300 208.287 M93.705 208.687 C 94.314 208.779,95.214 208.777,95.705 208.682 C 96.197 208.587,95.700 208.511,94.600 208.514 C 93.500 208.517,93.097 208.595,93.705 208.687 M168.500 209.497 C 169.985 209.574,172.415 209.574,173.900 209.497 C 175.385 209.420,174.170 209.357,171.200 209.357 C 168.230 209.357,167.015 209.420,168.500 209.497 M272.700 209.493 C 273.635 209.577,275.165 209.577,276.100 209.493 C 277.035 209.409,276.270 209.340,274.400 209.340 C 272.530 209.340,271.765 209.409,272.700 209.493 M137.100 209.898 C 139.135 209.971,142.465 209.971,144.500 209.898 C 146.535 209.825,144.870 209.766,140.800 209.766 C 136.730 209.766,135.065 209.825,137.100 209.898 M290.316 209.897 C 291.699 209.975,293.859 209.974,295.116 209.895 C 296.372 209.816,295.240 209.752,292.600 209.753 C 289.960 209.753,288.932 209.818,290.316 209.897 M91.900 211.093 C 92.835 211.177,94.365 211.177,95.300 211.093 C 96.235 211.009,95.470 210.940,93.600 210.940 C 91.730 210.940,90.965 211.009,91.900 211.093 M313.300 211.076 C 313.685 211.176,314.315 211.176,314.700 211.076 C 315.085 210.975,314.770 210.893,314.000 210.893 C 313.230 210.893,312.915 210.975,313.300 211.076 M84.700 211.482 C 85.195 211.578,86.005 211.578,86.500 211.482 C 86.995 211.387,86.590 211.309,85.600 211.309 C 84.610 211.309,84.205 211.387,84.700 211.482 M355.500 231.482 C 355.995 231.578,356.805 231.578,357.300 231.482 C 357.795 231.387,357.390 231.309,356.400 231.309 C 355.410 231.309,355.005 231.387,355.500 231.482 M141.705 242.687 C 142.314 242.779,143.214 242.777,143.705 242.682 C 144.197 242.587,143.700 242.511,142.600 242.514 C 141.500 242.517,141.097 242.595,141.705 242.687 M340.534 248.400 C 340.534 250.050,340.605 250.725,340.691 249.900 C 340.778 249.075,340.778 247.725,340.691 246.900 C 340.605 246.075,340.534 246.750,340.534 248.400 M56.493 247.200 C 56.493 247.970,56.575 248.285,56.676 247.900 C 56.776 247.515,56.776 246.885,56.676 246.500 C 56.575 246.115,56.493 246.430,56.493 247.200 M369.320 248.400 C 369.320 249.610,369.395 250.105,369.487 249.500 C 369.578 248.895,369.578 247.905,369.487 247.300 C 369.395 246.695,369.320 247.190,369.320 248.400 M372.120 248.400 C 372.120 249.610,372.195 250.105,372.287 249.500 C 372.378 248.895,372.378 247.905,372.287 247.300 C 372.195 246.695,372.120 247.190,372.120 248.400 M27.720 248.800 C 27.720 250.010,27.795 250.505,27.887 249.900 C 27.978 249.295,27.978 248.305,27.887 247.700 C 27.795 247.095,27.720 247.590,27.720 248.800 M24.909 248.800 C 24.909 249.790,24.987 250.195,25.082 249.700 C 25.178 249.205,25.178 248.395,25.082 247.900 C 24.987 247.405,24.909 247.810,24.909 248.800 M56.493 250.800 C 56.493 251.570,56.575 251.885,56.676 251.500 C 56.776 251.115,56.776 250.485,56.676 250.100 C 56.575 249.715,56.493 250.030,56.493 250.800 M287.206 254.594 C 286.463 255.361,285.932 256.050,286.027 256.125 C 286.122 256.200,286.806 255.573,287.546 254.731 C 289.229 252.818,289.012 252.731,287.206 254.594 M384.905 253.887 C 385.514 253.979,386.414 253.977,386.905 253.882 C 387.397 253.787,386.900 253.711,385.800 253.714 C 384.700 253.717,384.297 253.795,384.905 253.887 M364.981 258.900 L 363.400 260.600 365.100 259.019 C 366.681 257.548,366.984 257.200,366.681 257.200 C 366.616 257.200,365.851 257.965,364.981 258.900 M386.493 259.600 C 386.493 260.370,386.575 260.685,386.676 260.300 C 386.776 259.915,386.776 259.285,386.676 258.900 C 386.575 258.515,386.493 258.830,386.493 259.600 M91.720 260.800 C 91.720 262.010,91.795 262.505,91.887 261.900 C 91.978 261.295,91.978 260.305,91.887 259.700 C 91.795 259.095,91.720 259.590,91.720 260.800 M109.324 261.000 C 109.326 262.320,109.401 262.812,109.490 262.093 C 109.579 261.374,109.577 260.294,109.486 259.693 C 109.395 259.092,109.322 259.680,109.324 261.000 M284.914 260.600 C 284.917 261.700,284.995 262.103,285.087 261.495 C 285.179 260.886,285.177 259.986,285.082 259.495 C 284.987 259.003,284.911 259.500,284.914 260.600 M345.400 260.800 C 346.259 261.680,347.052 262.400,347.162 262.400 C 347.272 262.400,346.659 261.680,345.800 260.800 C 344.941 259.920,344.148 259.200,344.038 259.200 C 343.928 259.200,344.541 259.920,345.400 260.800 M89.293 260.800 C 89.293 261.570,89.375 261.885,89.476 261.500 C 89.576 261.115,89.576 260.485,89.476 260.100 C 89.375 259.715,89.293 260.030,89.293 260.800 M148.975 261.300 L 147.800 262.600 149.100 261.425 C 150.312 260.330,150.584 260.000,150.275 260.000 C 150.206 260.000,149.621 260.585,148.975 261.300 M252.900 261.076 C 253.285 261.176,253.915 261.176,254.300 261.076 C 254.685 260.975,254.370 260.893,253.600 260.893 C 252.830 260.893,252.515 260.975,252.900 261.076 M389.200 262.508 C 389.200 262.939,388.774 263.190,387.900 263.275 C 386.718 263.389,386.589 263.533,386.477 264.875 C 386.382 266.017,386.156 266.393,385.477 266.541 C 384.743 266.700,384.763 266.720,385.600 266.666 C 386.453 266.610,386.618 266.379,386.724 265.100 C 386.837 263.731,386.952 263.600,388.037 263.600 C 389.161 263.600,390.025 262.692,389.449 262.116 C 389.312 261.979,389.200 262.155,389.200 262.508 M355.300 262.687 C 355.905 262.778,356.895 262.778,357.500 262.687 C 358.105 262.595,357.610 262.520,356.400 262.520 C 355.190 262.520,354.695 262.595,355.300 262.687 M382.705 263.483 C 383.202 263.579,383.922 263.575,384.305 263.475 C 384.687 263.375,384.280 263.296,383.400 263.301 C 382.520 263.305,382.207 263.387,382.705 263.483 M11.905 265.083 C 12.402 265.179,13.122 265.175,13.505 265.075 C 13.887 264.975,13.480 264.896,12.600 264.901 C 11.720 264.905,11.407 264.987,11.905 265.083 M355.505 265.483 C 356.002 265.579,356.722 265.575,357.105 265.475 C 357.487 265.375,357.080 265.296,356.200 265.301 C 355.320 265.305,355.007 265.387,355.505 265.483 M379.200 266.925 C 379.200 266.994,379.785 267.579,380.500 268.225 L 381.800 269.400 380.625 268.100 C 379.530 266.888,379.200 266.616,379.200 266.925 M98.900 269.476 C 99.285 269.576,99.915 269.576,100.300 269.476 C 100.685 269.375,100.370 269.293,99.600 269.293 C 98.830 269.293,98.515 269.375,98.900 269.476 M203.500 274.682 C 203.995 274.778,204.805 274.778,205.300 274.682 C 205.795 274.587,205.390 274.509,204.400 274.509 C 203.410 274.509,203.005 274.587,203.500 274.682 "
      stroke="none"
      fill="#7f7f7f"
      fill-rule="evenodd"></path>
    <path
      id="path2"
      d="M16.161 10.958 C 16.043 11.265,16.018 12.210,16.106 13.058 C 16.260 14.546,16.268 14.534,16.333 12.729 C 16.383 11.320,16.573 10.814,17.100 10.676 C 17.756 10.504,17.755 10.490,17.087 10.446 C 16.696 10.421,16.279 10.651,16.161 10.958 M385.267 12.300 L 385.200 14.000 386.700 13.936 C 388.144 13.874,388.152 13.866,386.923 13.712 C 385.781 13.570,385.629 13.396,385.490 12.076 L 385.334 10.600 385.267 12.300 M383.309 17.200 C 383.309 18.190,383.387 18.595,383.482 18.100 C 383.578 17.605,383.578 16.795,383.482 16.300 C 383.387 15.805,383.309 16.210,383.309 17.200 M385.180 17.490 C 385.071 18.419,385.133 19.027,385.320 18.840 C 385.506 18.654,385.596 17.894,385.519 17.151 C 385.383 15.833,385.375 15.842,385.180 17.490 M17.980 17.890 C 17.871 18.819,17.933 19.427,18.120 19.240 C 18.306 19.054,18.396 18.294,18.319 17.551 C 18.183 16.233,18.175 16.242,17.980 17.890 M123.865 26.000 L 27.131 26.200 26.104 27.394 L 25.077 28.588 25.298 110.325 L 25.520 192.063 26.460 193.085 L 27.400 194.108 199.000 193.881 C 293.380 193.756,370.880 193.547,371.221 193.415 C 373.448 192.555,373.583 183.040,372.934 73.018 L 372.667 27.904 371.693 26.746 L 370.719 25.589 295.660 25.694 C 254.377 25.752,177.069 25.890,123.865 26.000 M363.903 50.434 L 364.007 73.068 319.303 73.334 C 294.716 73.480,220.015 73.600,153.300 73.600 L 32.000 73.600 32.000 51.000 C 32.000 38.570,32.045 28.373,32.100 28.341 C 32.265 28.243,286.802 27.759,326.800 27.780 L 363.800 27.800 363.903 50.434 M311.670 30.700 C 320.619 30.760,335.379 30.760,344.470 30.700 C 353.562 30.640,346.240 30.591,328.200 30.591 C 310.160 30.591,302.722 30.640,311.670 30.700 M60.500 31.100 C 74.745 31.158,98.055 31.158,112.300 31.100 C 126.545 31.042,114.890 30.994,86.400 30.994 C 57.910 30.994,46.255 31.042,60.500 31.100 M245.500 70.700 C 250.835 70.763,259.565 70.763,264.900 70.700 C 270.235 70.637,265.870 70.585,255.200 70.585 C 244.530 70.585,240.165 70.637,245.500 70.700 M148.307 83.486 C 147.706 83.577,146.626 83.579,145.907 83.490 C 145.188 83.401,145.680 83.326,147.000 83.324 C 148.320 83.322,148.908 83.395,148.307 83.486 M157.116 83.495 C 155.859 83.574,153.699 83.575,152.316 83.497 C 150.932 83.418,151.960 83.353,154.600 83.353 C 157.240 83.352,158.372 83.416,157.116 83.495 M310.200 85.792 C 312.354 86.857,314.783 89.376,316.000 91.804 L 317.000 93.800 317.124 120.000 C 317.277 152.492,317.251 152.678,311.962 156.177 C 308.510 158.462,315.545 158.322,197.200 158.466 L 87.800 158.600 85.527 157.484 C 82.853 156.170,81.076 154.280,79.640 151.218 L 78.600 149.000 78.600 121.800 L 78.600 94.600 79.659 92.341 C 82.837 85.562,83.275 85.442,105.800 85.187 C 162.461 84.547,308.557 84.979,310.200 85.792 M279.911 93.493 C 280.851 93.578,282.291 93.577,283.111 93.491 C 283.930 93.405,283.160 93.336,281.400 93.337 C 279.640 93.339,278.970 93.409,279.911 93.493 M155.913 97.895 C 157.076 97.976,158.876 97.976,159.913 97.893 C 160.951 97.811,160.000 97.745,157.800 97.746 C 155.600 97.747,154.751 97.814,155.913 97.895 M183.730 97.900 C 192.051 97.960,205.551 97.960,213.730 97.900 C 221.908 97.839,215.100 97.790,198.600 97.790 C 182.100 97.790,175.408 97.839,183.730 97.900 M170.800 99.800 C 171.546 100.570,172.247 101.200,172.357 101.200 C 172.467 101.200,171.946 100.570,171.200 99.800 C 170.454 99.030,169.753 98.400,169.643 98.400 C 169.533 98.400,170.054 99.030,170.800 99.800 M260.981 102.100 L 259.400 103.800 261.100 102.219 C 262.681 100.748,262.984 100.400,262.681 100.400 C 262.616 100.400,261.851 101.165,260.981 102.100 M110.900 101.491 C 111.725 101.578,113.075 101.578,113.900 101.491 C 114.725 101.405,114.050 101.334,112.400 101.334 C 110.750 101.334,110.075 101.405,110.900 101.491 M167.600 102.600 C 168.346 103.370,169.047 104.000,169.157 104.000 C 169.267 104.000,168.746 103.370,168.000 102.600 C 167.254 101.830,166.553 101.200,166.443 101.200 C 166.333 101.200,166.854 101.830,167.600 102.600 M180.942 124.600 C 180.941 126.580,181.008 127.440,181.092 126.512 C 181.176 125.584,181.177 123.964,181.095 122.912 C 181.012 121.860,180.943 122.620,180.942 124.600 M252.101 122.600 C 252.105 123.480,252.187 123.793,252.283 123.295 C 252.379 122.798,252.375 122.078,252.275 121.695 C 252.175 121.313,252.096 121.720,252.101 122.600 M261.300 123.091 C 262.125 123.178,263.475 123.178,264.300 123.091 C 265.125 123.005,264.450 122.934,262.800 122.934 C 261.150 122.934,260.475 123.005,261.300 123.091 M297.682 125.500 L 297.800 128.200 300.262 128.400 C 301.616 128.510,302.641 128.465,302.539 128.300 C 302.436 128.135,301.373 128.000,300.176 128.000 L 298.000 128.000 298.000 125.620 L 298.000 123.240 300.300 123.096 L 302.600 122.951 300.082 122.876 L 297.563 122.800 297.682 125.500 M96.509 124.800 C 96.509 125.790,96.587 126.195,96.682 125.700 C 96.778 125.205,96.778 124.395,96.682 123.900 C 96.587 123.405,96.509 123.810,96.509 124.800 M252.093 126.800 C 252.093 127.570,252.175 127.885,252.276 127.500 C 252.376 127.115,252.376 126.485,252.276 126.100 C 252.175 125.715,252.093 126.030,252.093 126.800 M319.099 141.277 C 319.030 143.985,318.973 141.880,318.973 136.600 C 318.972 131.320,319.029 129.105,319.099 131.677 C 319.168 134.249,319.168 138.569,319.099 141.277 M261.491 128.289 C 262.201 128.377,263.461 128.379,264.291 128.292 C 265.121 128.205,264.540 128.133,263.000 128.131 C 261.460 128.129,260.781 128.200,261.491 128.289 M270.753 138.463 C 271.890 139.680,272.387 140.512,272.188 140.863 C 271.940 141.299,271.985 141.305,272.429 140.893 C 272.883 140.471,272.641 140.067,270.993 138.493 L 269.012 136.600 270.753 138.463 M300.975 147.700 L 299.800 149.000 301.100 147.825 C 301.815 147.179,302.400 146.594,302.400 146.525 C 302.400 146.216,302.070 146.488,300.975 147.700 M280.100 148.287 C 280.705 148.378,281.695 148.378,282.300 148.287 C 282.905 148.195,282.410 148.120,281.200 148.120 C 279.990 148.120,279.495 148.195,280.100 148.287 M166.538 153.300 C 166.436 153.465,173.428 153.561,182.076 153.512 C 190.724 153.464,195.370 153.375,192.400 153.314 C 178.713 153.033,166.706 153.027,166.538 153.300 M155.300 153.476 C 155.685 153.576,156.315 153.576,156.700 153.476 C 157.085 153.375,156.770 153.293,156.000 153.293 C 155.230 153.293,154.915 153.375,155.300 153.476 M278.500 155.876 C 278.885 155.976,279.515 155.976,279.900 155.876 C 280.285 155.775,279.970 155.693,279.200 155.693 C 278.430 155.693,278.115 155.775,278.500 155.876 M111.700 156.276 C 112.085 156.376,112.715 156.376,113.100 156.276 C 113.485 156.175,113.170 156.093,112.400 156.093 C 111.630 156.093,111.315 156.175,111.700 156.276 M22.514 170.200 C 22.517 171.300,22.595 171.703,22.687 171.095 C 22.779 170.486,22.777 169.586,22.682 169.095 C 22.587 168.603,22.511 169.100,22.514 170.200 M375.693 180.400 C 375.693 181.170,375.775 181.485,375.876 181.100 C 375.976 180.715,375.976 180.085,375.876 179.700 C 375.775 179.315,375.693 179.630,375.693 180.400 M322.100 196.676 C 322.485 196.776,323.115 196.776,323.500 196.676 C 323.885 196.575,323.570 196.493,322.800 196.493 C 322.030 196.493,321.715 196.575,322.100 196.676 M355.500 234.282 C 355.995 234.378,356.805 234.378,357.300 234.282 C 357.795 234.187,357.390 234.109,356.400 234.109 C 355.410 234.109,355.005 234.187,355.500 234.282 M252.900 244.276 C 253.285 244.376,253.915 244.376,254.300 244.276 C 254.685 244.175,254.370 244.093,253.600 244.093 C 252.830 244.093,252.515 244.175,252.900 244.276 M380.893 262.000 C 380.893 262.770,380.975 263.085,381.076 262.700 C 381.176 262.315,381.176 261.685,381.076 261.300 C 380.975 260.915,380.893 261.230,380.893 262.000 M384.501 265.000 C 384.505 265.880,384.587 266.193,384.683 265.695 C 384.779 265.198,384.775 264.478,384.675 264.095 C 384.575 263.713,384.496 264.120,384.501 265.000 M286.400 265.725 C 286.400 265.794,286.985 266.379,287.700 267.025 L 289.000 268.200 287.825 266.900 C 286.730 265.688,286.400 265.416,286.400 265.725 M14.500 269.076 C 14.885 269.176,15.515 269.176,15.900 269.076 C 16.285 268.975,15.970 268.893,15.200 268.893 C 14.430 268.893,14.115 268.975,14.500 269.076 M291.905 269.083 C 292.402 269.179,293.122 269.175,293.505 269.075 C 293.887 268.975,293.480 268.896,292.600 268.901 C 291.720 268.905,291.407 268.987,291.905 269.083 "
      stroke="none"
      fill="#cccccc"
      fill-rule="evenodd"></path>
    <path
      id="path3"
      d="M382.043 9.706 C 380.457 10.524,379.514 12.694,379.762 14.955 C 380.466 21.402,388.824 20.921,388.922 14.427 C 388.984 10.360,385.460 7.942,382.043 9.706 M15.239 10.106 C 13.491 11.004,12.600 12.659,12.600 15.007 C 12.600 21.183,20.881 21.901,21.746 15.800 C 22.337 11.637,18.608 8.374,15.239 10.106 M385.522 11.876 C 385.635 13.439,385.730 13.561,386.922 13.676 C 388.829 13.861,388.811 15.741,386.900 15.925 C 385.724 16.039,385.600 16.175,385.600 17.359 C 385.600 18.965,385.444 19.136,384.191 18.896 C 383.339 18.733,383.200 18.489,383.200 17.153 C 383.200 15.639,383.164 15.600,381.772 15.600 C 379.839 15.600,379.862 13.884,381.799 13.664 C 383.234 13.501,383.586 13.032,383.594 11.272 C 383.604 9.060,385.357 9.609,385.522 11.876 M17.784 10.649 C 18.307 10.850,18.383 11.242,18.172 12.649 L 17.909 14.400 19.555 14.400 C 21.043 14.400,21.200 14.495,21.200 15.400 C 21.200 16.273,21.025 16.400,19.824 16.400 C 18.523 16.400,18.442 16.481,18.324 17.900 C 18.126 20.296,16.000 20.411,16.000 18.027 C 16.000 16.434,15.970 16.400,14.600 16.400 C 13.373 16.400,13.200 16.276,13.200 15.400 C 13.200 14.524,13.373 14.400,14.600 14.400 C 15.985 14.400,16.000 14.381,16.000 12.667 C 16.000 10.447,16.318 10.087,17.784 10.649 M235.600 30.822 C 166.630 30.965,93.233 31.109,72.496 31.141 L 34.793 31.200 34.896 51.100 L 35.000 71.000 83.200 70.896 C 109.710 70.838,183.105 70.677,246.300 70.538 L 361.200 70.285 361.200 50.342 C 361.200 39.374,361.155 30.436,361.100 30.481 C 361.045 30.525,304.570 30.679,235.600 30.822 M145.907 83.490 C 146.626 83.579,147.706 83.577,148.307 83.486 C 148.908 83.395,148.320 83.322,147.000 83.324 C 145.680 83.326,145.188 83.401,145.907 83.490 M152.316 83.497 C 153.699 83.575,155.859 83.574,157.116 83.495 C 158.372 83.416,157.240 83.352,154.600 83.353 C 151.960 83.353,150.932 83.418,152.316 83.497 M106.000 94.540 C 90.513 98.646,80.932 114.106,83.794 130.370 C 88.974 159.806,125.592 165.577,138.375 138.973 C 149.540 115.737,129.546 88.296,106.000 94.540 M276.200 93.872 C 256.691 98.243,246.464 120.417,255.438 138.887 C 269.546 167.924,310.162 157.320,310.162 124.600 C 310.162 105.132,293.446 90.008,276.200 93.872 M234.830 98.451 C 222.307 104.831,217.076 124.912,224.266 139.000 C 228.289 146.883,237.771 154.264,241.735 152.598 C 244.694 151.355,244.600 152.250,244.600 125.400 L 244.600 101.400 243.672 100.099 C 241.905 97.621,237.918 96.878,234.830 98.451 M152.300 98.929 L 151.200 99.830 151.206 125.415 C 151.209 139.487,151.344 151.190,151.506 151.423 C 153.309 154.019,159.338 153.451,163.400 150.303 C 163.620 150.132,164.726 149.274,165.858 148.396 C 181.076 136.587,179.663 109.261,163.308 99.056 C 160.922 97.567,154.060 97.488,152.300 98.929 M170.116 98.805 C 180.853 107.251,184.300 128.383,177.031 141.200 C 176.470 142.190,175.885 143.270,175.732 143.600 C 175.016 145.148,172.231 148.484,169.784 150.726 L 167.084 153.200 198.842 153.198 L 230.600 153.196 228.096 150.963 C 217.450 141.466,213.565 125.708,218.527 112.146 C 219.468 109.574,221.573 105.487,222.427 104.574 C 222.852 104.120,223.200 103.623,223.200 103.471 C 223.200 103.104,225.051 100.971,226.800 99.323 L 228.200 98.004 198.646 98.002 L 169.092 98.000 170.116 98.805 M118.600 102.288 C 120.845 103.101,123.351 104.416,124.703 105.490 L 125.606 106.208 123.623 108.604 L 121.641 111.000 123.121 112.487 C 125.036 114.412,125.494 114.356,127.306 111.977 C 128.134 110.890,128.963 110.000,129.148 110.000 C 129.757 110.000,132.775 116.549,133.387 119.200 C 134.338 123.314,134.395 123.200,131.400 123.200 L 128.800 123.200 128.800 125.800 L 128.800 128.400 131.200 128.400 C 133.424 128.400,133.600 128.466,133.596 129.300 C 133.584 131.626,131.662 136.231,129.337 139.500 C 127.330 142.323,127.063 142.443,126.218 140.900 C 124.757 138.231,124.591 138.157,122.938 139.442 C 122.118 140.079,121.273 140.719,121.059 140.864 C 120.834 141.017,121.202 141.957,121.935 143.099 C 123.503 145.543,123.513 145.424,121.676 146.361 C 115.687 149.417,105.563 148.881,101.500 145.294 C 100.572 144.474,100.572 144.474,102.393 142.400 L 103.974 140.600 102.149 138.896 L 100.324 137.191 98.728 139.196 C 97.850 140.298,97.012 141.198,96.866 141.195 C 96.456 141.187,93.200 136.143,93.200 135.515 C 93.200 135.210,93.029 134.789,92.821 134.580 C 92.438 134.196,91.200 129.871,91.200 128.916 C 91.200 128.545,91.970 128.400,93.940 128.400 L 96.681 128.400 96.603 127.300 C 96.560 126.695,96.497 125.525,96.463 124.700 L 96.400 123.200 93.600 123.200 C 92.060 123.200,90.800 123.155,90.800 123.100 C 90.803 118.927,95.521 108.347,97.347 108.417 C 97.596 108.427,98.497 109.507,99.349 110.817 C 101.170 113.618,100.830 113.515,103.035 111.932 C 105.173 110.396,105.182 110.823,102.945 107.518 C 101.924 106.011,101.159 104.725,101.245 104.661 C 105.478 101.488,113.400 100.405,118.600 102.288 M287.366 101.988 C 289.507 102.725,294.400 105.415,294.400 105.856 C 294.400 105.965,293.590 107.048,292.600 108.264 C 290.425 110.933,290.437 110.683,292.396 112.596 L 293.991 114.154 295.496 112.406 C 296.323 111.444,297.184 110.410,297.410 110.108 C 298.499 108.647,302.399 117.019,302.537 121.116 L 302.600 123.000 300.300 123.120 L 298.000 123.240 298.000 125.620 L 298.000 128.000 300.176 128.000 C 301.373 128.000,302.432 128.135,302.529 128.300 C 303.421 129.818,297.837 141.540,296.200 141.587 C 295.980 141.593,295.260 140.793,294.600 139.808 C 293.154 137.651,293.391 137.670,291.260 139.537 L 289.519 141.062 290.808 142.891 C 292.325 145.043,292.211 145.340,289.388 146.588 C 284.069 148.941,278.056 148.783,272.500 146.146 C 269.133 144.548,269.200 144.713,271.004 142.444 C 272.723 140.281,272.735 140.488,270.773 138.581 C 269.216 137.067,269.123 137.032,268.582 137.764 C 267.176 139.668,265.969 140.763,265.482 140.576 C 264.120 140.053,260.552 132.578,260.326 129.773 L 260.200 128.200 262.900 128.082 L 265.600 127.963 265.600 125.582 L 265.600 123.200 262.742 123.200 L 259.884 123.200 260.129 120.700 C 260.634 115.549,265.529 106.462,266.756 108.400 C 266.964 108.730,267.804 109.934,268.620 111.076 L 270.105 113.152 271.853 111.691 C 273.958 109.932,273.942 110.221,272.084 107.566 C 271.250 106.375,270.434 105.183,270.271 104.917 C 269.919 104.346,271.521 103.397,275.000 102.116 C 278.260 100.916,284.074 100.856,287.366 101.988 M318.973 136.600 C 318.973 141.880,319.030 143.985,319.099 141.277 C 319.168 138.569,319.168 134.249,319.099 131.677 C 319.029 129.105,318.972 131.320,318.973 136.600 M351.393 235.359 C 344.407 238.538,341.387 248.054,345.059 255.314 C 348.984 263.072,359.479 264.760,365.202 258.552 C 375.195 247.710,364.335 229.470,351.393 235.359 M36.543 235.633 C 29.053 238.513,25.721 248.376,29.730 255.800 C 37.107 269.465,55.864 261.964,53.492 246.297 C 52.218 237.875,44.059 232.742,36.543 235.633 M357.868 239.760 C 369.250 242.791,365.650 260.650,354.200 257.957 C 344.464 255.667,344.224 242.453,353.870 239.802 C 354.932 239.510,355.800 239.258,355.800 239.241 C 355.800 239.223,356.731 239.457,357.868 239.760 M42.691 240.362 C 52.085 242.180,51.464 257.213,41.942 258.519 C 38.945 258.929,33.200 256.693,33.200 255.116 C 33.200 254.924,32.807 254.236,32.327 253.586 C 30.890 251.643,31.092 246.792,32.709 244.399 C 35.178 240.747,38.253 239.503,42.691 240.362 M249.674 245.592 C 245.386 248.699,244.794 254.637,248.402 258.355 C 254.300 264.431,263.457 257.828,260.584 249.571 C 258.886 244.692,253.585 242.759,249.674 245.592 M140.334 245.426 C 136.872 246.499,134.989 249.753,135.302 254.121 C 135.690 259.548,140.972 263.150,145.320 260.953 C 154.040 256.547,149.551 242.568,140.334 245.426 M290.475 252.664 C 287.435 253.315,284.914 257.871,285.333 261.958 C 286.085 269.300,295.886 271.370,299.150 264.877 C 302.490 258.230,297.473 251.167,290.475 252.664 M95.735 253.806 C 90.728 256.807,90.869 265.574,95.969 268.271 C 103.443 272.223,110.551 262.294,105.156 255.435 C 103.054 252.763,98.725 252.014,95.735 253.806 M383.726 257.385 C 380.082 258.970,380.359 265.151,384.156 266.952 C 387.081 268.340,390.400 265.716,390.400 262.015 C 390.400 258.149,387.151 255.896,383.726 257.385 M386.167 257.843 C 386.611 258.013,386.800 258.609,386.800 259.843 C 386.800 261.584,386.812 261.600,388.200 261.600 C 389.427 261.600,389.600 261.724,389.600 262.600 C 389.600 263.476,389.427 263.600,388.200 263.600 C 386.830 263.600,386.800 263.634,386.800 265.227 C 386.800 267.593,384.675 267.499,384.477 265.124 C 384.366 263.787,384.234 263.636,383.077 263.524 C 380.923 263.315,381.007 261.600,383.172 261.600 L 384.800 261.600 384.800 259.867 C 384.800 257.729,385.020 257.403,386.167 257.843 M12.876 259.210 C 8.609 261.812,10.283 268.822,15.162 268.787 C 20.154 268.751,21.763 261.896,17.410 259.206 C 15.762 258.188,14.551 258.189,12.876 259.210 M16.000 261.376 C 16.000 263.139,16.011 263.153,17.500 263.276 C 19.752 263.462,19.935 265.092,17.724 265.274 C 16.278 265.394,16.194 265.477,16.076 266.900 C 15.882 269.237,14.000 269.147,14.000 266.800 C 14.000 265.238,13.967 265.200,12.600 265.200 C 11.373 265.200,11.200 265.076,11.200 264.200 C 11.200 263.324,11.373 263.200,12.600 263.200 C 13.784 263.200,14.001 263.061,14.005 262.300 C 14.016 260.608,14.479 259.600,15.247 259.600 C 15.871 259.600,16.000 259.903,16.000 261.376 "
      stroke="none"
      fill="#ffffff"
      fill-rule="evenodd"></path>
    <path
      id="path4"
      d="M106.200 2.795 C 21.584 2.984,14.067 3.053,12.546 3.666 C 7.545 5.680,4.856 8.698,2.993 14.388 C 1.962 17.540,2.338 259.454,3.381 263.336 C 4.610 267.910,7.475 271.494,11.473 273.458 L 13.800 274.600 37.470 274.709 C 64.131 274.832,61.293 275.195,61.791 271.600 C 62.071 269.584,62.876 265.275,64.034 259.600 C 66.158 249.194,67.242 243.964,67.765 241.600 C 68.082 240.170,68.555 238.010,68.816 236.800 C 71.615 223.838,75.221 212.997,77.552 210.530 C 78.914 209.090,86.771 208.565,115.800 207.972 C 127.240 207.738,142.090 207.413,148.800 207.249 C 155.510 207.085,172.070 206.916,185.600 206.874 C 199.130 206.832,213.080 206.694,216.600 206.568 C 241.927 205.658,314.882 207.841,319.637 209.650 C 321.334 210.296,323.594 215.706,325.965 224.800 C 326.453 226.670,327.109 229.190,327.424 230.400 C 327.739 231.610,328.359 234.310,328.802 236.400 C 329.245 238.490,329.952 241.820,330.374 243.800 C 330.796 245.780,331.436 248.930,331.796 250.800 C 332.157 252.670,332.707 255.460,333.019 257.000 C 333.331 258.540,333.692 260.520,333.822 261.400 C 333.952 262.280,334.307 264.260,334.611 265.800 C 334.915 267.340,335.370 269.914,335.622 271.520 L 336.079 274.439 360.939 274.299 C 387.211 274.152,387.336 274.143,390.200 272.261 C 393.603 270.026,395.410 267.603,396.799 263.413 L 397.723 260.626 397.485 138.413 C 397.227 6.195,397.370 14.253,395.204 10.097 C 393.982 7.752,391.072 4.992,388.480 3.719 L 386.200 2.600 292.200 2.595 C 240.500 2.592,156.800 2.682,106.200 2.795 M386.953 6.382 C 390.173 7.606,392.818 12.200,392.212 15.515 C 390.473 25.028,377.656 24.748,376.522 15.172 C 375.835 9.371,381.736 4.399,386.953 6.382 M20.067 7.152 C 24.155 8.925,26.129 13.576,24.541 17.692 C 21.807 24.777,13.088 25.089,10.046 18.211 C 7.066 11.474,13.546 4.323,20.067 7.152 M372.646 23.825 C 373.254 24.278,374.122 25.146,374.575 25.754 L 375.400 26.858 375.600 108.529 C 375.710 153.448,375.655 190.920,375.477 191.800 C 375.097 193.681,373.567 195.428,371.834 195.960 C 370.135 196.482,303.463 196.766,152.969 196.893 L 26.938 197.000 25.427 195.847 C 22.408 193.545,22.666 201.054,22.480 110.288 C 22.305 24.816,22.259 27.456,23.965 25.459 C 25.865 23.236,14.076 23.419,170.000 23.194 C 385.250 22.884,371.328 22.840,372.646 23.825 M169.800 209.464 C 166.060 209.530,151.120 209.760,136.600 209.976 C 109.242 210.381,81.246 211.378,79.728 212.000 C 77.383 212.961,73.439 226.234,68.555 249.600 C 67.248 255.852,66.862 257.817,65.455 265.400 C 65.128 267.160,64.672 269.410,64.440 270.400 C 64.209 271.390,64.015 272.785,64.010 273.500 L 64.000 274.800 100.100 274.800 C 119.955 274.800,180.599 274.680,234.864 274.534 L 333.528 274.267 333.332 272.834 C 333.224 272.045,332.890 270.140,332.590 268.600 C 332.290 267.060,331.665 263.640,331.200 261.000 C 329.388 250.707,328.586 246.824,324.797 230.000 C 322.898 221.567,319.365 211.605,318.271 211.596 C 318.012 211.594,315.460 211.317,312.600 210.979 C 302.265 209.761,209.071 208.772,169.800 209.464 M359.600 231.755 C 370.411 234.342,375.564 247.109,369.870 257.198 C 363.978 267.637,349.681 268.178,343.406 258.200 C 335.312 245.328,345.666 228.420,359.600 231.755 M46.647 233.094 C 60.169 238.647,59.961 259.409,46.329 264.800 C 29.831 271.324,17.302 248.223,30.698 235.980 C 32.867 233.998,33.336 233.716,36.400 232.562 C 38.929 231.610,43.627 231.853,46.647 233.094 M258.469 243.158 C 265.582 247.669,265.265 258.505,257.913 262.169 C 248.048 267.084,238.978 254.178,246.152 245.435 C 249.106 241.835,254.741 240.794,258.469 243.158 M145.714 243.033 C 154.223 245.932,154.822 259.232,146.616 263.053 C 137.931 267.098,129.351 257.257,133.741 248.285 C 136.053 243.560,140.953 241.410,145.714 243.033 M295.742 250.433 C 304.108 252.756,304.974 266.375,297.008 270.353 C 289.425 274.140,280.965 266.885,282.959 258.305 C 284.413 252.049,289.743 248.767,295.742 250.433 M103.889 251.420 C 108.636 253.785,110.759 259.700,108.747 264.957 C 105.476 273.505,94.581 273.973,90.553 265.739 C 86.160 256.760,95.176 247.078,103.889 251.420 M388.520 254.246 C 393.093 256.552,394.781 261.270,392.653 265.800 C 388.943 273.698,377.871 270.776,377.939 261.918 C 377.983 256.320,383.993 251.962,388.520 254.246 M19.065 256.617 C 25.636 260.468,23.333 271.043,15.676 272.178 C 12.195 272.694,7.806 268.802,7.582 265.000 C 7.366 261.325,7.563 260.518,9.177 258.477 C 11.810 255.146,15.402 254.470,19.065 256.617 "
      stroke="none"
      fill="#66cca8"
      fill-rule="evenodd"></path>
  </g>
</svg>
